{
    "asset" : {
        "generator" : "Khronos glTF Blender I/O v3.3.32",
        "version" : "2.0"
    },
    "scene" : 0,
    "scenes" : [
        {
            "name" : "Scene",
            "nodes" : [
                0
            ]
        }
    ],
    "nodes" : [
        {
            "mesh" : 0,
            "name" : "Text",
            "rotation" : [
                0.7071068286895752,
                0,
                0,
                0.7071068286895752
            ],
            "scale" : [
                2.846585750579834,
                2.846585750579834,
                2.846585750579834
            ],
            "translation" : [
                0,
                -7.855708827264607e-05,
                0
            ]
        }
    ],
    "meshes" : [
        {
            "name" : "Text",
            "primitives" : [
                {
                    "attributes" : {
                        "POSITION" : 0,
                        "NORMAL" : 1,
                        "TEXCOORD_0" : 2
                    },
                    "indices" : 3
                }
            ]
        }
    ],
    "accessors" : [
        {
            "bufferView" : 0,
            "componentType" : 5126,
            "count" : 14396,
            "max" : [
                0.28189149498939514,
                0.18500001728534698,
                0.21948809921741486
            ],
            "min" : [
                -0.28189167380332947,
                -0.18500001728534698,
                -0.21948811411857605
            ],
            "type" : "VEC3"
        },
        {
            "bufferView" : 1,
            "componentType" : 5126,
            "count" : 14396,
            "type" : "VEC3"
        },
        {
            "bufferView" : 2,
            "componentType" : 5126,
            "count" : 14396,
            "type" : "VEC2"
        },
        {
            "bufferView" : 3,
            "componentType" : 5123,
            "count" : 61620,
            "type" : "SCALAR"
        }
    ],
    "bufferViews" : [
        {
            "buffer" : 0,
            "byteLength" : 172752,
            "byteOffset" : 0,
            "target" : 34962
        },
        {
            "buffer" : 0,
            "byteLength" : 172752,
            "byteOffset" : 172752,
            "target" : 34962
        },
        {
            "buffer" : 0,
            "byteLength" : 115168,
            "byteOffset" : 345504,
            "target" : 34962
        },
        {
            "buffer" : 0,
            "byteLength" : 123240,
            "byteOffset" : 460672,
            "target" : 34963
        }
    ],
    "buffers" : [
        {
            "byteLength" : 583912,
            "uri" : "data:application/octet-stream;base64,"
        }
    ]
}
