{
    "asset" : {
        "generator" : "Khronos glTF Blender I/O v3.3.32",
        "version" : "2.0"
    },
    "scene" : 0,
    "scenes" : [
        {
            "name" : "Scene",
            "nodes" : [
                0
            ]
        }
    ],
    "nodes" : [
        {
            "mesh" : 0,
            "name" : "Text",
            "rotation" : [
                0.7071068286895752,
                0,
                0,
                0.7071068286895752
            ],
            "scale" : [
                2.846585750579834,
                2.846585750579834,
                2.846585750579834
            ],
            "translation" : [
                0,
                -7.855708827264607e-05,
                0
            ]
        }
    ],
    "meshes" : [
        {
            "name" : "Text",
            "primitives" : [
                {
                    "attributes" : {
                        "POSITION" : 0,
                        "NORMAL" : 1,
                        "TEXCOORD_0" : 2
                    },
                    "indices" : 3
                }
            ]
        }
    ],
    "accessors" : [
        {
            "bufferView" : 0,
            "componentType" : 5126,
            "count" : 15879,
            "max" : [
                0.7757344841957092,
                0.18500001728534698,
                0.3054255545139313
            ],
            "min" : [
                -0.7757344841957092,
                -0.18500001728534698,
                -0.3054255545139313
            ],
            "type" : "VEC3"
        },
        {
            "bufferView" : 1,
            "componentType" : 5126,
            "count" : 15879,
            "type" : "VEC3"
        },
        {
            "bufferView" : 2,
            "componentType" : 5126,
            "count" : 15879,
            "type" : "VEC2"
        },
        {
            "bufferView" : 3,
            "componentType" : 5123,
            "count" : 69036,
            "type" : "SCALAR"
        }
    ],
    "bufferViews" : [
        {
            "buffer" : 0,
            "byteLength" : 190548,
            "byteOffset" : 0,
            "target" : 34962
        },
        {
            "buffer" : 0,
            "byteLength" : 190548,
            "byteOffset" : 190548,
            "target" : 34962
        },
        {
            "buffer" : 0,
            "byteLength" : 127032,
            "byteOffset" : 381096,
            "target" : 34962
        },
        {
            "buffer" : 0,
            "byteLength" : 138072,
            "byteOffset" : 508128,
            "target" : 34963
        }
    ],
    "buffers" : [
        {
            "byteLength" : 646200,
            "uri" : "data:application/octet-stream;base64,"
        }
    ]
}
