{
    "asset" : {
        "generator" : "Khronos glTF Blender I/O v3.3.32",
        "version" : "2.0"
    },
    "scene" : 0,
    "scenes" : [
        {
            "name" : "Scene",
            "nodes" : [
                0
            ]
        }
    ],
    "nodes" : [
        {
            "mesh" : 0,
            "name" : "Text",
            "rotation" : [
                0.7071068286895752,
                0,
                0,
                0.7071068286895752
            ],
            "scale" : [
                2.846585750579834,
                2.846585750579834,
                2.846585750579834
            ],
            "translation" : [
                0,
                -7.855708827264607e-05,
                0
            ]
        }
    ],
    "meshes" : [
        {
            "name" : "Text",
            "primitives" : [
                {
                    "attributes" : {
                        "POSITION" : 0,
                        "NORMAL" : 1,
                        "TEXCOORD_0" : 2
                    },
                    "indices" : 3
                }
            ]
        }
    ],
    "accessors" : [
        {
            "bufferView" : 0,
            "componentType" : 5126,
            "count" : 39320,
            "max" : [
                2.15210223197937,
                0.18500001728534698,
                0.3600073754787445
            ],
            "min" : [
                -2.152102470397949,
                -0.18500001728534698,
                -0.3600051999092102
            ],
            "type" : "VEC3"
        },
        {
            "bufferView" : 1,
            "componentType" : 5126,
            "count" : 39320,
            "type" : "VEC3"
        },
        {
            "bufferView" : 2,
            "componentType" : 5126,
            "count" : 39320,
            "type" : "VEC2"
        },
        {
            "bufferView" : 3,
            "componentType" : 5123,
            "count" : 170184,
            "type" : "SCALAR"
        }
    ],
    "bufferViews" : [
        {
            "buffer" : 0,
            "byteLength" : 471840,
            "byteOffset" : 0,
            "target" : 34962
        },
        {
            "buffer" : 0,
            "byteLength" : 471840,
            "byteOffset" : 471840,
            "target" : 34962
        },
        {
            "buffer" : 0,
            "byteLength" : 314560,
            "byteOffset" : 943680,
            "target" : 34962
        },
        {
            "buffer" : 0,
            "byteLength" : 340368,
            "byteOffset" : 1258240,
            "target" : 34963
        }
    ],
    "buffers" : [
        {
            "byteLength" : 1598608,
            "uri" : "data:application/octet-stream;base64,"
        }
    ]
}
